# xmcd
#
# Track frame offsets: 
#        151
#        15247
#        36784
#        48396
#        69576
#        83734
#        99119
#        113847
#        130274
#        142633
#        156531
#        169308
#        180511
#        193495
#        207088
#        220595
#        233424
#        244971
#
# Disc length: 3447 seconds
#
# Revision: 2
# Processed by: cddbd v1.5.2PL0 Copyright (c) Steve Scherf et al.
# Submitted via: ExactAudioCopy v0.95b3
#
DISCID=eb0d7512
DTITLE=Big Bill Broonzy - Big Bill Blues
DYEAR=1900
DGENRE=Blues
TTITLE0=House rent stomp
TTITLE1=In the evening
TTITLE2=Willie Mae blues
TTITLE3=Back water blues
TTITLE4=Black brown and white
TTITLE5=John Henry
TTITLE6=Lonesome road blues
TTITLE7=Blues in 1890
TTITLE8=Conversation with the blues
TTITLE9=Wee wee blues
TTITLE10=Night watchman blues
TTITLE11=All by myself
TTITLE12=When I been drinking
TTITLE13=Looking up at down
TTITLE14=Medicine man blues
TTITLE15=Just a dream
TTITLE16=Baby I done god wise
TTITLE17=Big Bill blues
EXTD=Collektion\nErstveröfentlichung der einzelnen Stücke zwischen 193
EXTD=6 und 1951
EXTT0=Paris, September 20, 1951\ngit. solo
EXTT1=Paris, September 20, 1951
EXTT2=Paris, September 20, 1951
EXTT3=Paris, September 20, 1951\n
EXTT4=Paris, September 20, 1951\n
EXTT5=Paris, September 21, 1951
EXTT6=Paris, September 21, 1951\n
EXTT7=Paris, September 21, 1951\n
EXTT8=Chicago, July 17, 1941
EXTT9=Chicago, July 17, 1941\n
EXTT10=Chicago, December 2, 1941
EXTT11=Chicago, July 17, 1941\n
EXTT12=Chicago, May 2, 1941\n
EXTT13=Chicago, June 10, 1940
EXTT14=Chicago, June 10, 1940\n
EXTT15=Chicago, February 6, 1936
EXTT16=Chicago, February 6, 1936\n
EXTT17=Chicago, February 12, 1936
PLAYORDER=
